<?xml version="1.0" standalone="no"?><!DOCTYPE svg PUBLIC "-//W3C//DTD SVG 1.1//EN" "http://www.w3.org/Graphics/SVG/1.1/DTD/svg11.dtd"><svg t="1741000876994" class="icon" viewBox="0 0 1024 1024" version="1.1" xmlns="http://www.w3.org/2000/svg" p-id="12489" xmlns:xlink="http://www.w3.org/1999/xlink" width="200" height="200"><path d="M32.000611 160.000047h959.999906v704.000282H32.000611z" fill="#CEE5AA" p-id="12490"></path><path d="M992.000517 896.000564H32.000611c-17.673131 0-32.000235-14.327104-32.000235-32.000235V160.000047c0-17.673131 14.327104-32.000235 32.000235-32.000235h959.999906c17.673131 0 32.000235 14.327104 32.000236 32.000235v704.000282c0 17.673131-14.327104 32.000235-32.000236 32.000235zM64.000847 832.00047H960.000659V191.999906H64.000847v640.000564z" fill="#CEE5AA" p-id="12491"></path><path d="M992.000517 320.00047l-480.000141 287.999483-479.999765-287.999483v-160.000423h959.999906z" fill="#89C642" p-id="12492"></path><path d="M512.000376 639.999812a31.975776 31.975776 0 0 1-16.463714-4.559958L15.536521 347.439995a31.99873 31.99873 0 0 1-15.536145-27.439525v-160.000423c0-17.673131 14.327104-31.999859 32.000235-31.999859h959.999906c17.673131 0 32.000235 14.326728 32.000236 31.999859v160.000423a31.999106 31.999106 0 0 1-15.536521 27.439525L528.464091 635.439854a31.976905 31.976905 0 0 1-16.463715 4.559958zM64.00047 301.882181l447.999906 268.799718 448.000283-268.799718v-109.882275H64.00047v109.882275z" fill="#89C642" p-id="12493"></path></svg>